# xmcd
#
# Track frame offsets:
#	150
#	19487
#	37912
#	52562
#	71850
#	93750
#
# Disc length: 1492 seconds
#
# Revision: 1
# Processed by: cddbd v1.5PL3 Copyright (c) Steve Scherf et al.
# Submitted via: CDex 1.50Beta5
#
DISCID=4105d206
DTITLE=桜井幸子 - 桜井幸子Best Selection
DYEAR=1994
DGENRE=Pop
TTITLE0=ともだちでいようよ
TTITLE1=君にとどかない
TTITLE2=瞳はイノセント
TTITLE3=天使の落書
TTITLE4=恋していたい
TTITLE5=素顔になれば
EXTD=
EXTT0=
EXTT1=
EXTT2=
EXTT3=
EXTT4=
EXTT5=
PLAYORDER=
